<svg version="1.1" id="Layer_1" xmlns="http://www.w3.org/2000/svg" xmlns:xlink="http://www.w3.org/1999/xlink" x="0px" y="0px"
	 width="100%" viewBox="0 0 1920 1920" enable-background="new 0 0 1920 1920" xml:space="preserve">
<path fill="#FFC107" opacity="1.000000" stroke="none" 
	d="
M1504.260254,230.755737 
	C1515.002075,239.160233 1525.608887,247.151047 1535.938965,255.484909 
	C1566.447021,280.097565 1595.004150,306.879608 1621.729004,335.496613 
	C1638.942261,353.928558 1654.952026,373.495209 1671.275391,392.744812 
	C1691.683472,416.811310 1709.817261,442.587128 1726.583008,469.263794 
	C1739.027222,489.064209 1750.679077,509.379150 1762.184570,529.746948 
	C1769.376831,542.479126 1776.311157,555.441223 1782.182007,568.817749 
	C1793.881592,595.475464 1805.377197,622.255554 1815.834351,649.417236 
	C1828.509521,682.339905 1838.449829,716.188416 1846.216187,750.623535 
	C1850.068115,767.701965 1853.820312,784.822083 1856.884521,802.053589 
	C1860.049561,819.851807 1862.632080,837.769653 1864.884155,855.708679 
	C1866.437988,868.084351 1867.227905,880.571838 1867.942017,893.033203 
	C1868.849731,908.873779 1869.387817,924.736511 1869.985229,940.593445 
	C1870.409302,951.850464 1871.088135,963.120911 1870.898438,974.372620 
	C1870.633911,990.067383 1870.026855,1005.776245 1868.901123,1021.431274 
	C1867.655151,1038.758789 1866.197754,1056.105225 1863.871460,1073.313477 
	C1859.670532,1104.389160 1854.226074,1135.237793 1847.258301,1165.869507 
	C1839.455444,1200.172607 1829.532837,1233.810181 1817.774780,1266.871948 
	C1809.760254,1289.407349 1800.532227,1311.567871 1790.733521,1333.396362 
	C1781.233521,1354.559570 1770.858521,1375.377930 1759.888794,1395.822510 
	C1742.422119,1428.375488 1722.924927,1459.747070 1700.919800,1489.452148 
	C1687.452148,1507.632446 1673.424438,1525.408203 1659.325317,1543.108398 
	C1635.902588,1572.513794 1609.605347,1599.317749 1582.219482,1624.940430 
	C1563.208374,1642.727417 1542.849243,1659.097534 1522.784058,1675.728516 
	C1495.098022,1698.676147 1465.518677,1719.112305 1434.653931,1737.416260 
	C1407.289185,1753.644531 1379.174194,1768.748779 1350.641479,1782.831543 
	C1311.734009,1802.034790 1271.176514,1817.358398 1229.662720,1830.101318 
	C1201.329346,1838.798584 1172.777222,1846.612305 1143.612427,1851.957031 
	C1123.943115,1855.561401 1104.216309,1858.882202 1084.455566,1861.944580 
	C1073.155396,1863.695801 1061.756226,1864.900513 1050.364502,1865.945190 
	C1036.773926,1867.191406 1023.150635,1868.118408 1009.527771,1868.960938 
	C1000.614014,1869.511963 991.676514,1869.686279 982.748413,1869.994995 
	C972.488586,1870.349731 962.219543,1871.093628 951.968628,1870.904785 
	C934.441101,1870.581909 916.906311,1869.964355 899.408875,1868.904419 
	C884.842651,1868.022217 870.261169,1866.813110 855.800110,1864.892700 
	C825.015869,1860.804443 794.396606,1855.839722 763.987305,1849.260376 
	C726.577271,1841.166260 689.965698,1830.472046 653.972717,1817.755371 
	C631.436279,1809.792847 609.255676,1800.605591 587.525024,1790.638672 
	C563.346924,1779.549438 539.247681,1768.014160 516.230652,1754.737305 
	C487.989410,1738.447144 460.413239,1720.871582 433.485504,1702.481323 
	C414.153412,1689.278442 395.991364,1674.266113 377.977325,1659.256836 
	C360.079224,1644.344360 342.483795,1628.979614 325.745575,1612.789795 
	C309.936859,1597.499268 295.111847,1581.150024 280.417542,1564.761230 
	C267.100372,1549.908691 253.629105,1535.044922 241.855896,1518.990845 
	C222.228500,1492.226318 203.458939,1464.799561 185.204544,1437.074585 
	C175.138855,1421.786743 166.767029,1405.374756 157.792847,1389.379150 
	C140.231461,1358.077637 125.685257,1325.334229 112.616829,1291.974854 
	C100.587242,1261.267334 89.753029,1230.098389 81.985207,1197.979980 
	C76.200478,1174.061401 70.301109,1150.158691 65.207138,1126.089355 
	C62.345154,1112.566284 60.790588,1098.747437 59.054523,1085.010376 
	C57.126122,1069.751587 55.531216,1054.446899 54.042927,1039.137695 
	C53.119831,1029.642334 52.525040,1020.108643 52.038399,1010.579163 
	C51.531898,1000.660767 51.315186,990.727295 51.003822,980.799438 
	C50.650684,969.539551 49.911728,958.271423 50.101398,947.019714 
	C50.368778,931.158325 51.055004,915.290466 52.085163,899.459473 
	C53.032871,884.895447 54.188728,870.312317 56.106770,855.850891 
	C60.189831,825.065857 65.144020,794.445740 71.733330,764.037170 
	C79.839188,726.629822 90.502838,690.010071 103.238068,654.021729 
	C111.216393,631.475891 120.388176,609.275757 130.356720,587.531250 
	C141.447723,563.338379 153.434311,539.503662 166.140366,516.115662 
	C185.504608,480.471954 207.994720,446.731201 232.408905,414.360168 
	C245.384186,397.156128 258.911285,380.264832 273.388824,364.321594 
	C294.593719,340.969940 316.166199,317.856781 338.918030,296.034943 
	C357.695892,278.024597 378.245544,261.834351 398.309387,245.198547 
	C425.992188,222.245529 455.598145,201.851593 486.443237,183.515762 
	C513.654297,167.340179 541.582397,152.217270 569.985168,138.237183 
	C609.210571,118.930168 649.964783,103.010170 691.949158,90.759666 
	C720.192444,82.518654 748.912048,75.846489 777.568787,69.111702 
	C793.359985,65.400513 809.412415,62.703732 825.439819,60.126553 
	C837.052246,58.259296 848.796692,57.114117 860.518921,56.051456 
	C877.538635,54.508560 894.585632,53.247608 911.632812,52.033787 
	C919.377869,51.482319 927.149902,51.289833 934.912415,51.010418 
	C945.338135,50.635143 955.767090,50.050564 966.193542,50.072712 
	C978.787964,50.099464 991.393860,50.422073 1003.971680,51.066200 
	C1017.934204,51.781242 1031.922974,52.542454 1045.806030,54.115307 
	C1065.417236,56.337105 1084.953979,59.236790 1104.500854,61.999451 
	C1139.720337,66.977188 1174.241211,75.090889 1208.479736,84.680717 
	C1241.843262,94.025444 1274.656616,105.001068 1306.524048,118.454430 
	C1332.207642,129.297211 1357.409668,141.387741 1382.319702,153.929276 
	C1415.426025,170.597458 1446.760132,190.375259 1477.420410,211.175552 
	C1486.479980,217.321686 1495.150146,224.041794 1504.260254,230.755737 
M922.672363,77.999969 
	C914.818054,78.664360 906.961609,79.303589 899.109985,79.998543 
	C884.238525,81.314835 869.349243,82.470024 854.506226,84.055885 
	C841.359131,85.460548 828.182312,86.885254 815.166992,89.152817 
	C796.631714,92.382080 778.067688,95.722275 759.811279,100.215218 
	C729.205994,107.747253 698.892822,116.301361 669.089905,126.786407 
	C630.479431,140.370102 592.776978,155.980667 556.699097,175.215271 
	C531.726562,188.529190 507.182739,202.742538 483.113220,217.630463 
	C454.270508,235.470795 426.728882,255.298080 401.061798,277.536926 
	C380.323334,295.505463 359.852539,313.791443 339.570404,332.273926 
	C331.728577,339.419891 324.606079,347.377106 317.384277,355.176178 
	C307.826233,365.498230 298.074921,375.685242 289.159241,386.547943 
	C275.511688,403.175781 262.341583,420.204620 249.265076,437.290039 
	C226.126694,467.522064 205.753159,499.613434 187.678055,533.059204 
	C175.015305,556.490112 163.054260,580.381042 152.289154,604.733704 
	C141.846069,628.357849 132.775330,652.636536 124.112015,676.987183 
	C114.080093,705.184631 105.802185,733.960205 99.891876,763.349121 
	C95.509422,785.140808 90.852219,806.891602 87.153351,828.801758 
	C84.408943,845.058289 82.579315,861.503418 81.123749,877.933777 
	C79.596931,895.168457 78.774979,912.476562 78.082222,929.770081 
	C77.642303,940.751831 77.776184,951.771179 78.048882,962.763794 
	C78.541519,982.622192 79.015709,1002.490417 80.100204,1022.321655 
	C80.905838,1037.053711 82.475670,1051.753906 84.053604,1066.430908 
	C85.466972,1079.577148 86.882988,1092.754517 89.149208,1105.770020 
	C92.376595,1124.305908 95.727020,1142.866821 100.204277,1161.127930 
	C107.478416,1190.796631 115.734489,1220.190308 125.816246,1249.099854 
	C139.449097,1288.192139 155.210983,1326.317749 174.547562,1362.905273 
	C185.394028,1383.428345 196.391571,1403.928101 208.511658,1423.708862 
	C229.122101,1457.346558 251.527512,1489.822998 277.352417,1519.735840 
	C295.718262,1541.008789 314.405914,1562.023438 333.533600,1582.611084 
	C343.331451,1593.156738 354.235748,1602.706055 364.954468,1612.356323 
	C378.085602,1624.178589 391.219238,1636.039673 404.954651,1647.137817 
	C419.071716,1658.544556 433.809143,1669.197021 448.462738,1679.923218 
	C479.139648,1702.378296 511.542633,1722.120605 545.100647,1739.910400 
	C561.896484,1748.814209 579.086487,1757.016113 596.364746,1764.955566 
	C611.790955,1772.044067 627.331177,1779.030762 643.273071,1784.817017 
	C667.864380,1793.742554 692.715210,1802.012573 717.703125,1809.763672 
	C732.361511,1814.310547 747.446655,1817.542725 762.435059,1820.947266 
	C778.085022,1824.502075 793.805237,1827.789185 809.578430,1830.746704 
	C820.939941,1832.876831 832.412720,1834.479492 843.884033,1835.938354 
	C854.121765,1837.240356 864.416809,1838.125122 874.702271,1839.011108 
	C891.069092,1840.420776 907.432922,1841.960083 923.829346,1842.895142 
	C933.796387,1843.463623 943.826904,1843.195801 953.820862,1842.960449 
	C976.844360,1842.418457 999.878601,1841.991821 1022.877747,1840.882202 
	C1037.278442,1840.187378 1051.642090,1838.511108 1065.987671,1836.954956 
	C1079.297607,1835.511475 1092.645630,1834.127930 1105.825439,1831.843994 
	C1124.363403,1828.631714 1142.922607,1825.270752 1161.185913,1820.801392 
	C1199.357056,1811.460571 1237.018555,1800.427856 1273.756470,1786.218262 
	C1303.583008,1774.681885 1332.746948,1761.850098 1361.268921,1747.403931 
	C1397.944824,1728.828003 1432.968384,1707.617310 1466.699829,1684.132080 
	C1493.010986,1665.813232 1518.344971,1646.254761 1542.244995,1624.956055 
	C1560.041138,1609.096802 1577.144653,1592.409302 1593.868408,1575.413574 
	C1607.791138,1561.264160 1621.122192,1546.476685 1633.966309,1531.336548 
	C1647.674438,1515.177856 1660.989990,1498.634155 1673.609131,1481.614868 
	C1695.475586,1452.123657 1715.670898,1421.412842 1732.774780,1388.941528 
	C1748.351440,1359.369019 1763.020874,1329.238037 1776.421997,1298.623169 
	C1789.765869,1268.138672 1800.290771,1236.506714 1809.341187,1204.409180 
	C1818.900269,1170.507202 1827.030273,1136.322021 1832.000122,1101.432739 
	C1834.784058,1081.889404 1837.673950,1062.350952 1839.882935,1042.739014 
	C1841.465454,1028.689819 1842.288452,1014.535400 1842.914062,1000.404236 
	C1843.506470,987.021240 1843.822754,973.597229 1843.503784,960.209290 
	C1843.003906,939.227905 1841.947510,918.257874 1840.964355,897.290649 
	C1840.501709,887.428345 1840.088013,877.531738 1838.894653,867.742981 
	C1836.922241,851.564514 1834.658936,835.405884 1831.927124,819.339417 
	C1828.526001,799.336975 1825.256226,779.264526 1820.614258,759.531738 
	C1813.395752,728.846863 1805.361206,698.314209 1793.953735,668.856140 
	C1783.626221,642.186523 1773.756226,615.258301 1761.736572,589.347717 
	C1749.291992,562.521301 1735.377808,536.275146 1720.536377,510.685883 
	C1698.119263,472.034851 1672.782471,435.230469 1643.622070,401.286621 
	C1624.269287,378.759094 1604.686279,356.355011 1583.986328,335.082764 
	C1567.755493,318.403198 1549.767456,303.416168 1532.336548,287.928955 
	C1523.425537,280.011780 1514.299683,272.280762 1504.781860,265.115173 
	C1488.991943,253.227707 1472.834351,241.826996 1456.783203,230.288773 
	C1431.084595,211.815659 1403.805786,195.889664 1375.892334,181.091904 
	C1358.942017,172.106110 1341.620972,163.775909 1324.186279,155.760910 
	C1308.910522,148.738449 1293.487671,141.893250 1277.693481,136.174835 
	C1253.094360,127.268478 1228.252930,118.972366 1203.265259,111.220200 
	C1188.607056,106.672630 1173.517822,103.454147 1158.529175,100.049179 
	C1142.879639,96.494110 1127.162720,93.193535 1111.390259,90.235809 
	C1100.028198,88.105171 1088.552368,86.516823 1077.079712,85.060913 
	C1066.841431,83.761620 1056.545776,82.888733 1046.261597,81.983101 
	C1030.393921,80.585739 1014.535583,78.847916 998.633850,78.138817 
	C983.995544,77.486061 969.305359,77.999962 954.638000,77.999954 
	C944.305237,77.999954 933.972412,77.999969 922.672363,77.999969 
z"/>
<path fill="#FFC107" opacity="1.000000" stroke="none" 
	d="
M583.841431,1199.000000 
	C555.692688,1199.000000 528.024841,1198.776001 500.362793,1199.080688 
	C482.657867,1199.275635 466.745789,1188.324585 462.669556,1171.165161 
	C462.258972,1169.436768 462.029480,1167.621460 462.027466,1165.846191 
	C461.990082,1132.847656 462.000000,1099.849243 462.000000,1066.850708 
	C462.000000,1065.057861 462.000000,1063.265015 462.000000,1061.000000 
	C453.488953,1061.000000 445.372803,1060.985474 437.256683,1061.002930 
	C416.776886,1061.046997 401.387817,1051.644531 389.648834,1035.418213 
	C382.119568,1025.010986 378.976624,1013.292236 378.990082,1000.568909 
	C379.021301,971.070251 379.222015,941.569519 378.938629,912.073608 
	C378.645264,881.537842 398.654297,857.993164 427.718048,851.215454 
	C431.676544,850.292358 435.865082,850.153442 439.957153,850.050171 
	C447.096588,849.870056 454.243805,850.000000 462.000000,850.000000 
	C462.000000,847.979248 462.000000,846.214539 462.000000,844.449829 
	C462.000000,814.784546 461.999908,785.119202 462.000092,755.453918 
	C462.000183,740.591309 475.206879,725.942627 490.029327,723.090454 
	C494.671936,722.197021 499.511993,722.060852 504.263245,722.045044 
	C531.924011,721.952942 559.585327,722.000000 588.000000,722.000000 
	C588.000000,712.978088 587.636108,704.042114 588.127869,695.153564 
	C588.455872,689.225220 589.191833,683.075378 591.166870,677.531189 
	C595.815979,664.480225 611.103333,652.982117 625.517456,652.990112 
	C672.848633,653.016357 720.179749,652.997192 767.510925,653.001465 
	C785.423462,653.003052 801.761780,666.071777 805.950989,684.104431 
	C806.646606,687.098389 806.953369,690.248779 806.957214,693.327515 
	C807.018127,741.825195 807.000000,790.322998 807.000000,838.820740 
	C807.000000,840.643921 807.000000,842.467041 807.000000,844.644775 
	C909.228516,844.644775 1011.287659,844.644775 1114.000000,844.644775 
	C1114.000000,843.022156 1114.000000,841.262573 1114.000000,839.502991 
	C1114.000000,790.505249 1114.021240,741.507507 1113.988647,692.509766 
	C1113.976929,674.863098 1127.155518,658.030518 1145.110474,654.039612 
	C1147.955566,653.407227 1150.923950,653.046509 1153.835938,653.042725 
	C1200.833740,652.982300 1247.831787,652.936707 1294.829346,653.041321 
	C1307.731567,653.070068 1317.531006,659.331177 1325.193359,669.370911 
	C1330.969727,676.939392 1333.498901,685.378235 1333.081543,694.950500 
	C1332.698120,703.744751 1333.000000,712.568848 1333.000000,722.000000 
	C1335.013306,722.000000 1336.777100,722.000000 1338.540894,722.000000 
	C1365.872925,722.000000 1393.208252,722.254211 1420.536011,721.910645 
	C1438.758057,721.681580 1454.272339,733.131653 1458.392822,749.910767 
	C1458.817017,751.637451 1458.973511,753.470337 1458.975464,755.254211 
	C1459.009521,786.582703 1459.000000,817.911255 1459.000000,850.000000 
	C1466.178223,850.000000 1473.265015,849.851379 1480.343384,850.032532 
	C1493.142334,850.360107 1505.192993,853.412964 1515.792969,860.890137 
	C1529.804077,870.773438 1538.871338,883.848145 1540.976929,901.182129 
	C1541.510986,905.578979 1541.942139,910.020691 1541.955566,914.443237 
	C1542.042358,942.941711 1541.681763,971.445068 1542.091431,999.937866 
	C1542.484253,1027.259277 1524.641479,1051.914917 1498.388062,1059.145020 
	C1494.971802,1060.085815 1491.392944,1060.826660 1487.870483,1060.917114 
	C1478.415649,1061.160034 1468.950439,1061.000000 1459.000000,1061.000000 
	C1459.000000,1063.159058 1459.000000,1064.940186 1459.000000,1066.721313 
	C1459.000000,1099.553101 1458.926514,1132.385132 1459.032959,1165.216553 
	C1459.081665,1180.217163 1445.680664,1195.246704 1430.802856,1197.919312 
	C1426.143066,1198.756470 1421.317383,1198.939209 1416.566284,1198.955078 
	C1388.921875,1199.046997 1361.277100,1199.000000 1333.000000,1199.000000 
	C1333.000000,1209.164185 1332.660400,1219.108276 1333.078979,1229.020508 
	C1333.720703,1244.222656 1320.899536,1261.207520 1307.082764,1265.342896 
	C1302.312622,1266.770386 1297.229980,1267.867310 1292.285156,1267.887451 
	C1245.954834,1268.077026 1199.623169,1268.043213 1153.291992,1267.978638 
	C1134.782959,1267.952881 1119.625122,1254.738281 1115.066895,1237.261475 
	C1114.293823,1234.297485 1114.046875,1231.121338 1114.042969,1228.042725 
	C1113.981689,1179.378296 1114.000000,1130.713867 1114.000000,1082.049438 
	C1114.000000,1080.238525 1114.000000,1078.427612 1114.000000,1076.309326 
	C1011.679443,1076.309326 909.620422,1076.309326 807.000000,1076.309326 
	C807.000000,1078.082642 807.000000,1079.854614 807.000000,1081.626709 
	C807.000000,1130.624512 807.033875,1179.622192 806.982117,1228.619995 
	C806.963196,1246.473999 794.089661,1262.460327 776.282227,1266.929810 
	C773.150452,1267.715942 769.808838,1267.952271 766.563538,1267.956787 
	C720.399048,1268.020264 674.232605,1267.748779 628.070862,1268.110474 
	C606.366089,1268.280518 586.825012,1248.489868 587.924866,1227.915771 
	C588.377991,1219.440430 587.866394,1210.917358 588.070801,1202.422607 
	C588.143616,1199.398926 586.972168,1198.612305 583.841431,1199.000000 
M631.000000,918.500000 
	C631.000000,1020.569580 631.000000,1122.639160 631.000000,1224.685547 
	C675.642578,1224.685547 719.695984,1224.685547 763.705933,1224.685547 
	C763.705933,1048.344849 763.705933,872.318604 763.705933,696.314331 
	C719.357605,696.314331 675.304138,696.314331 631.000000,696.314331 
	C631.000000,770.252258 631.000000,843.876099 631.000000,918.500000 
M1157.000122,1221.324951 
	C1156.201660,1225.280762 1158.769287,1225.026611 1161.418579,1225.024414 
	C1203.074219,1224.989746 1244.729980,1225.001709 1286.385620,1224.990234 
	C1287.495361,1224.989868 1288.605103,1224.847412 1289.730957,1224.770142 
	C1289.730957,1048.401123 1289.730957,872.371765 1289.730957,696.290527 
	C1245.407104,696.290527 1201.353027,696.290527 1157.000000,696.290527 
	C1157.000000,871.173279 1157.000000,1045.765747 1157.000122,1221.324951 
M1082.500000,1033.000000 
	C1092.924561,1033.000000 1103.349121,1033.000000 1113.667114,1033.000000 
	C1113.667114,984.309631 1113.667114,936.261475 1113.667114,888.320679 
	C1011.302185,888.320679 909.270447,888.320679 807.332764,888.320679 
	C807.332764,936.690308 807.332764,984.738464 807.332764,1033.000000 
	C898.943604,1033.000000 990.221802,1033.000000 1082.500000,1033.000000 
M588.000000,816.500000 
	C588.000000,799.745483 588.000000,782.990967 588.000000,766.340210 
	C559.973877,766.340210 532.585571,766.340210 505.318176,766.340210 
	C505.318176,896.039185 505.318176,1025.397705 505.318176,1154.659912 
	C533.026001,1154.659912 560.414307,1154.659912 588.000000,1154.659912 
	C588.000000,1042.046631 588.000000,929.773315 588.000000,816.500000 
M1416.000000,951.500000 
	C1416.000000,889.760437 1416.000000,828.020874 1416.000000,766.320801 
	C1388.012817,766.320801 1360.624634,766.320801 1333.298828,766.320801 
	C1333.298828,896.000305 1333.298828,1025.358887 1333.298828,1154.679199 
	C1360.987061,1154.679199 1388.375244,1154.679199 1416.000000,1154.679199 
	C1416.000000,1087.072510 1416.000000,1019.786255 1416.000000,951.500000 
M422.000000,966.500000 
	C422.000031,977.817322 421.589050,989.153870 422.117523,1000.446472 
	C422.630463,1011.406738 427.348267,1016.923157 435.847229,1017.798950 
	C444.357208,1018.675903 453.028107,1017.991577 461.776489,1017.991577 
	C461.776489,976.475830 461.776489,935.454712 461.776489,894.010254 
	C452.616455,894.010254 443.673706,893.990479 434.731415,894.046326 
	C433.984467,894.051025 433.235168,894.551880 432.496399,894.845947 
	C424.680389,897.957520 422.172150,904.526367 422.074127,912.076538 
	C421.842926,929.881714 422.000000,947.691833 422.000000,966.500000 
M1476.470215,894.000000 
	C1470.714966,894.000000 1464.959839,894.000000 1459.301758,894.000000 
	C1459.301758,935.678650 1459.301758,976.701538 1459.301758,1018.000000 
	C1466.733398,1018.000000 1473.878906,1017.726929 1480.995972,1018.061890 
	C1492.625488,1018.609192 1498.829224,1011.001892 1498.917725,1000.129944 
	C1499.157715,970.672119 1499.129395,941.210144 1498.910889,911.752014 
	C1498.854980,904.203918 1496.175293,897.403625 1488.168457,894.854797 
	C1484.843628,893.796448 1481.040649,894.239624 1476.470215,894.000000 
z"/>
</svg>